<?xml version="1.0" standalone="no"?>
<!DOCTYPE svg PUBLIC "-//W3C//DTD SVG 20010904//EN"
 "http://www.w3.org/TR/2001/REC-SVG-20010904/DTD/svg10.dtd">
<svg version="1.0" xmlns="http://www.w3.org/2000/svg"
 width="1668.000000pt" height="1668.000000pt" viewBox="0 0 1668.000000 1668.000000"
 preserveAspectRatio="xMidYMid meet">
<metadata>
Created by potrace 1.11, written by Peter Selinger 2001-2013
</metadata>
<g transform="translate(0.000000,1668.000000) scale(0.100000,-0.100000)"
fill="#000000" stroke="none">
<path d="M7828 15635 c-1 -1 -41 -6 -88 -9 -47 -4 -98 -8 -115 -10 -69 -8
-142 -17 -165 -21 -14 -3 -38 -7 -55 -10 -16 -3 -39 -7 -50 -9 -11 -2 -40 -7
-65 -11 -25 -4 -81 -15 -125 -25 -45 -11 -92 -21 -105 -24 -23 -5 -45 -10 -87
-20 -10 -3 -56 -16 -103 -31 -86 -26 -106 -32 -137 -39 -42 -10 -306 -107
-398 -146 -115 -49 -309 -148 -409 -208 -37 -23 -70 -42 -73 -42 -7 0 -342
-228 -374 -254 -14 -11 -41 -32 -59 -46 -46 -34 -196 -156 -246 -199 -314
-276 -580 -537 -874 -861 -47 -52 -96 -105 -108 -119 -13 -14 -47 -53 -75 -85
-29 -33 -56 -64 -62 -70 -40 -44 -98 -110 -140 -160 -27 -33 -54 -64 -60 -70
-5 -6 -35 -40 -65 -76 -30 -36 -60 -70 -66 -76 -5 -6 -30 -35 -55 -64 -24 -29
-48 -58 -54 -64 -5 -6 -35 -40 -65 -76 -30 -36 -59 -70 -65 -76 -5 -6 -29 -33
-52 -60 -23 -27 -51 -60 -63 -74 -19 -22 -76 -87 -133 -154 -56 -64 -138 -157
-177 -201 -25 -27 -49 -55 -55 -61 -140 -160 -484 -509 -624 -634 -46 -41 -89
-80 -95 -85 -31 -29 -121 -100 -206 -164 -52 -39 -99 -74 -105 -79 -137 -106
-603 -364 -885 -490 -25 -11 -85 -39 -133 -61 -49 -23 -90 -41 -92 -41 -6 0
-198 -91 -370 -175 -168 -83 -362 -194 -369 -211 -3 -8 -13 -64 -23 -126 -12
-81 -17 -178 -17 -343 -1 -208 3 -295 20 -450 6 -54 50 -345 59 -385 3 -14 10
-51 16 -84 27 -152 110 -486 175 -711 51 -175 162 -516 185 -570 4 -11 21 -58
38 -105 28 -83 103 -285 120 -325 5 -11 32 -78 61 -150 64 -157 133 -321 166
-393 13 -29 24 -54 24 -56 0 -2 23 -53 51 -112 28 -60 62 -134 76 -164 40 -86
245 -498 293 -585 126 -235 155 -287 185 -335 12 -19 24 -40 26 -45 3 -9 57
-99 204 -343 99 -164 443 -656 484 -692 3 -3 24 -27 46 -55 21 -27 42 -52 45
-55 3 -3 23 -25 44 -50 130 -151 587 -593 840 -815 38 -33 74 -65 80 -70 6 -6
40 -35 76 -65 35 -30 70 -59 76 -65 6 -5 30 -26 54 -45 24 -19 48 -40 54 -45
49 -47 391 -311 566 -437 210 -151 571 -388 591 -388 5 0 9 -3 9 -7 0 -5 10
-13 23 -19 12 -6 81 -45 152 -86 304 -177 652 -346 970 -475 61 -24 119 -48
130 -53 114 -52 691 -233 845 -265 8 -2 53 -12 100 -23 245 -59 548 -114 760
-138 25 -3 56 -7 70 -9 14 -2 51 -6 83 -9 31 -4 83 -9 115 -12 63 -7 105 -10
292 -21 232 -14 711 -8 905 12 17 1 64 6 105 10 41 4 86 8 100 10 52 7 187 26
206 29 37 7 89 15 124 21 19 3 80 15 135 26 55 12 107 22 115 24 296 62 780
219 1050 342 30 13 71 32 90 40 425 186 955 523 1310 832 193 168 416 390 550
547 98 115 136 161 207 254 87 113 252 354 303 441 17 30 35 61 40 69 62 100
175 318 263 510 105 228 227 603 297 908 30 133 69 326 75 377 3 17 9 64 15
105 18 125 19 135 25 196 3 32 8 77 10 99 27 244 26 774 -1 1040 -13 133 -29
261 -39 315 -2 14 -7 45 -11 70 -3 24 -7 47 -9 50 -1 3 -6 28 -9 55 -4 28 -11
68 -16 90 -5 22 -11 51 -14 65 -43 224 -138 546 -237 808 -212 558 -449 972
-784 1368 -64 77 -420 432 -509 509 -38 33 -74 65 -80 70 -12 11 -122 103
-146 122 -14 12 -99 80 -188 152 -23 18 -42 37 -42 40 0 4 12 12 28 18 15 6
65 32 112 58 47 25 141 76 210 112 69 36 157 83 195 103 39 21 234 121 435
223 201 102 385 197 410 211 25 14 59 33 75 42 63 36 134 94 155 129 21 34 22
44 15 123 -4 48 -9 96 -10 107 -2 11 -4 28 -4 38 -1 15 -8 17 -58 11 -282 -28
-926 -268 -1533 -570 -395 -197 -653 -355 -797 -487 -39 -36 -43 -44 -37 -71
14 -64 83 -166 178 -262 85 -85 191 -168 406 -319 268 -187 367 -262 435 -330
33 -33 131 -157 217 -275 87 -118 266 -361 398 -540 327 -441 309 -414 370
-555 88 -206 150 -376 218 -595 45 -145 120 -480 137 -610 3 -25 8 -52 10 -60
3 -14 7 -41 21 -158 3 -26 7 -63 9 -82 25 -209 25 -786 0 -944 -2 -12 -9 -64
-15 -116 -32 -267 -86 -527 -167 -800 -200 -677 -551 -1310 -1023 -1844 -136
-154 -415 -419 -600 -570 -117 -95 -409 -295 -555 -381 -184 -109 -467 -246
-675 -328 -140 -55 -392 -143 -433 -151 -7 -2 -32 -9 -57 -16 -25 -7 -49 -14
-55 -16 -5 -1 -55 -13 -110 -27 -89 -23 -245 -56 -330 -71 -16 -3 -41 -8 -55
-10 -27 -6 -83 -14 -139 -22 -19 -2 -46 -6 -60 -9 -14 -2 -55 -7 -91 -11 -36
-3 -78 -8 -95 -10 -40 -4 -171 -13 -270 -19 -100 -6 -523 -7 -630 0 -156 8
-310 20 -390 30 -22 3 -67 7 -100 10 -33 3 -71 8 -85 10 -33 6 -75 13 -130 20
-25 3 -81 12 -125 20 -44 8 -95 17 -113 20 -276 46 -797 189 -1117 307 -375
139 -809 336 -1105 502 -134 76 -364 210 -375 219 -5 4 -62 40 -125 80 -63 39
-119 75 -125 79 -5 5 -82 58 -170 119 -139 97 -251 179 -410 303 -49 38 -328
267 -335 275 -3 3 -39 35 -80 71 -41 35 -82 71 -91 80 -8 8 -58 53 -109 100
-159 145 -401 391 -503 513 -313 373 -722 997 -1037 1582 -23 44 -58 107 -76
141 -18 33 -81 157 -141 275 -355 701 -634 1388 -809 1989 -80 275 -138 531
-169 745 -4 22 -8 51 -10 64 -27 162 -27 553 0 681 3 14 8 39 11 57 6 33 30
50 199 143 74 41 453 230 460 230 8 0 370 181 443 221 145 80 376 221 392 239
3 3 35 27 71 52 106 75 255 201 498 423 96 86 600 593 713 715 139 151 244
267 299 331 11 13 35 40 52 59 64 71 113 127 167 189 30 36 60 69 65 75 6 6
39 45 75 86 36 41 67 77 70 80 3 3 32 36 65 75 53 62 99 115 130 149 6 6 39
45 75 86 36 41 68 77 71 80 3 3 27 30 54 60 262 300 640 685 869 885 38 33 74
65 80 70 6 6 49 41 96 79 47 37 96 76 110 87 76 61 392 279 404 279 2 0 33 17
67 38 176 106 460 232 684 305 104 33 301 89 355 101 14 3 43 10 65 15 72 18
354 67 430 75 260 28 629 27 815 -4 30 -5 72 -11 92 -14 72 -11 233 -48 331
-77 250 -75 561 -227 727 -356 270 -210 421 -370 582 -618 179 -275 318 -640
354 -930 3 -22 7 -45 9 -52 16 -50 23 -339 12 -503 -13 -181 -46 -349 -103
-530 -71 -224 -154 -396 -290 -600 -199 -300 -434 -527 -769 -743 -93 -61
-331 -181 -381 -193 -16 -4 -33 -10 -39 -14 -5 -4 -46 -19 -90 -35 -187 -66
-361 -162 -437 -241 -84 -88 -80 -75 -49 -162 51 -141 97 -212 150 -230 31
-11 88 -10 216 4 44 5 188 9 320 8 231 -1 323 -10 530 -49 262 -51 607 -182
860 -328 85 -49 322 -205 351 -232 6 -5 29 -23 50 -40 137 -107 330 -291 444
-424 30 -35 60 -69 66 -75 40 -42 217 -289 282 -394 280 -451 448 -918 527
-1462 28 -192 28 -683 0 -850 -3 -14 -7 -45 -10 -70 -56 -412 -252 -932 -477
-1262 -10 -15 -18 -30 -18 -33 0 -3 -5 -11 -10 -18 -6 -7 -36 -48 -67 -92 -32
-44 -60 -82 -63 -85 -3 -3 -18 -23 -35 -45 -16 -22 -31 -42 -34 -45 -4 -3 -31
-34 -61 -70 -77 -93 -252 -273 -334 -345 -376 -331 -784 -565 -1269 -726 -179
-60 -434 -122 -587 -144 -24 -4 -47 -8 -50 -10 -3 -2 -34 -6 -70 -10 -36 -4
-74 -9 -85 -11 -166 -32 -800 -38 -974 -9 -14 2 -53 7 -86 10 -334 34 -745
131 -1085 257 -74 28 -148 56 -165 63 -16 8 -64 28 -105 46 -130 55 -382 185
-495 255 -22 13 -55 32 -72 41 -18 9 -33 20 -33 25 0 4 -5 8 -11 8 -5 0 -40
21 -77 47 -37 25 -89 62 -117 81 -27 19 -70 51 -95 71 -25 20 -61 48 -80 63
-104 79 -299 262 -430 404 -156 168 -323 393 -446 600 -41 70 -165 318 -207
414 -51 116 -141 393 -173 530 -65 285 -89 505 -88 810 0 278 6 336 59 635 3
17 19 80 36 140 112 413 317 759 574 971 213 175 427 255 700 259 159 3 253
-12 396 -64 75 -28 254 -121 269 -140 3 -4 25 -22 50 -41 325 -248 504 -705
424 -1080 -30 -142 -118 -292 -255 -435 -44 -46 -58 -62 -107 -120 -94 -111
-123 -218 -98 -361 7 -37 11 -42 54 -57 26 -9 58 -19 72 -21 14 -3 55 -12 91
-20 103 -23 174 -30 309 -31 143 0 208 7 335 34 262 57 480 163 1045 508 344
210 579 321 806 378 277 71 574 88 804 46 97 -18 114 -22 164 -36 490 -144
857 -557 962 -1080 2 -11 6 -31 9 -45 14 -70 17 -107 19 -240 3 -153 -2 -218
-34 -390 -34 -188 -162 -486 -275 -643 -84 -117 -142 -186 -234 -278 -133
-133 -205 -192 -354 -291 -114 -75 -408 -228 -438 -228 -8 0 -19 -4 -24 -9
-13 -12 -225 -83 -345 -115 -106 -29 -273 -64 -336 -72 -23 -3 -52 -7 -64 -9
-12 -2 -57 -7 -99 -10 -42 -4 -96 -9 -121 -11 -51 -5 -370 -5 -445 0 -77 5
-183 16 -260 27 -38 6 -82 12 -97 14 -161 23 -487 112 -642 175 -171 70 -425
200 -706 363 -131 76 -323 167 -355 170 -26 2 -31 -3 -44 -38 -22 -62 -18
-170 9 -240 109 -285 524 -571 1112 -765 101 -34 227 -70 298 -85 8 -2 46 -11
85 -20 38 -9 85 -18 103 -21 19 -2 37 -6 41 -9 4 -2 30 -7 57 -10 27 -4 56 -8
64 -10 8 -3 38 -7 65 -10 28 -3 79 -10 115 -15 183 -25 610 -34 820 -17 114 9
350 42 440 62 36 8 74 16 85 18 69 12 285 78 417 127 126 48 398 178 429 206
8 8 19 14 23 14 19 0 244 161 351 250 53 44 260 254 296 299 18 24 39 48 45
55 31 33 149 204 202 293 150 249 270 542 297 728 2 11 8 40 13 65 19 85 33
226 34 355 0 94 -10 284 -17 295 -2 3 -6 30 -10 60 -26 219 -154 562 -288 771
-104 162 -284 365 -416 469 -300 238 -664 379 -1046 407 -147 10 -451 3 -475
-12 -3 -2 -27 -6 -55 -9 -27 -3 -61 -8 -75 -11 -14 -2 -61 -12 -105 -21 -70
-14 -261 -67 -335 -93 -187 -66 -329 -136 -598 -296 -9 -6 -82 -49 -162 -96
-272 -162 -468 -254 -634 -299 l-68 -18 7 121 c4 67 9 136 10 152 2 17 6 55 9
85 6 59 14 124 22 180 15 116 10 373 -10 465 -25 117 -43 169 -94 275 -75 158
-244 396 -360 507 -131 125 -211 188 -326 257 -230 140 -465 207 -737 211
-216 3 -364 -22 -589 -101 -3 -1 -16 -5 -29 -9 -13 -5 -68 -29 -121 -55 -621
-304 -1068 -926 -1224 -1704 -13 -67 -27 -148 -31 -181 -4 -33 -8 -71 -10 -84
-22 -136 -22 -598 -1 -707 2 -11 7 -47 10 -80 13 -117 63 -380 101 -517 8 -31
22 -82 30 -113 9 -31 18 -61 21 -65 3 -5 8 -21 10 -36 8 -43 102 -298 166
-448 239 -560 638 -1130 1043 -1490 68 -61 267 -216 360 -282 511 -359 1151
-647 1720 -773 72 -16 148 -31 170 -35 22 -3 65 -10 95 -15 145 -25 334 -47
570 -67 179 -15 801 -7 910 11 14 3 52 7 85 10 76 7 207 26 350 52 223 40 599
148 800 230 61 25 70 29 140 59 63 27 273 131 345 171 429 237 837 580 1149
967 264 327 483 711 636 1112 90 237 181 584 210 805 3 25 8 52 10 60 2 8 7
44 10 80 4 36 9 79 11 95 22 165 21 556 -1 755 -2 19 -6 62 -10 95 -3 33 -7
67 -10 75 -2 8 -6 38 -10 65 -3 28 -10 68 -15 90 -5 22 -12 56 -15 75 -33 190
-144 535 -243 755 -242 535 -689 1115 -1117 1450 -89 70 -299 215 -311 215 -2
0 -21 11 -42 24 -80 51 -278 145 -482 231 -74 31 -144 60 -155 65 -11 5 -82
37 -158 70 -140 62 -196 90 -321 163 l-70 40 34 26 c194 148 479 426 631 616
203 253 343 485 462 765 41 97 112 301 121 346 2 10 13 55 24 99 12 44 24 100
27 125 4 24 8 47 10 51 2 3 7 34 11 70 3 35 8 67 10 70 5 8 18 251 18 334 -1
127 -16 319 -34 410 -5 28 -13 67 -16 89 -9 58 -59 252 -89 342 -201 600 -608
1127 -1140 1475 -230 151 -440 254 -698 345 -144 50 -401 116 -507 130 -19 2
-48 7 -65 11 -32 6 -51 9 -130 18 -27 3 -70 8 -95 11 -48 6 -566 15 -572 9z"/>
<path d="M15587 13374 c-1 -1 -99 -5 -217 -8 -118 -4 -240 -9 -270 -11 -30 -2
-158 -6 -285 -10 -304 -9 -397 -15 -515 -35 -30 -5 -71 -12 -90 -15 -19 -3
-57 -10 -85 -15 -27 -6 -59 -12 -70 -14 -57 -11 -241 -61 -410 -112 -104 -31
-210 -63 -235 -70 -25 -7 -108 -32 -185 -54 l-140 -42 -95 -82 c-52 -46 -115
-90 -140 -100 -200 -78 -406 -269 -565 -526 -138 -224 -225 -467 -239 -670
l-5 -72 27 7 c52 12 100 52 308 253 209 204 292 277 459 404 151 115 331 226
515 315 123 60 218 103 227 103 4 0 36 12 72 26 61 25 300 100 346 110 17 3
34 7 85 19 31 7 122 27 141 30 13 2 51 9 84 14 33 6 80 13 105 16 25 3 63 8
85 11 246 32 738 37 985 9 19 -2 62 -6 95 -9 91 -9 236 -28 315 -42 14 -2 47
-7 74 -10 l48 -7 -6 -66 c-7 -74 -12 -108 -27 -166 -106 -409 -485 -929 -911
-1250 -243 -184 -510 -295 -848 -354 -63 -11 -136 -23 -162 -26 -105 -11 -136
-14 -203 -20 -38 -3 -92 -8 -120 -10 -27 -2 -99 -7 -160 -10 -299 -16 -514
-45 -637 -85 -71 -24 -185 -76 -193 -90 -7 -11 102 -120 120 -120 8 0 15 -4
17 -8 7 -17 139 -67 233 -89 142 -32 193 -36 430 -37 224 -1 335 4 460 20 22
3 55 7 72 9 18 2 48 7 65 10 18 3 47 7 63 10 106 18 161 27 170 29 490 110
830 235 1051 387 121 84 274 231 399 384 22 27 53 64 69 82 15 18 61 79 102
136 40 56 77 107 81 112 46 56 217 347 295 500 71 139 172 398 193 495 2 8 8
36 14 62 24 106 33 289 18 378 -6 35 -41 135 -55 156 -26 39 -209 97 -377 119
-22 3 -56 8 -75 10 -59 8 -496 24 -503 19z"/>
<path d="M7975 13141 c-204 -55 -357 -252 -357 -460 0 -279 217 -496 492 -490
189 4 347 103 428 269 184 375 -160 790 -563 681z"/>
<path d="M14405 12243 c-92 -19 -165 -55 -229 -114 -79 -72 -134 -196 -132
-299 l1 -45 60 3 c247 11 485 161 599 377 l26 49 -45 18 c-61 24 -193 29 -280
11z"/>
<path d="M5656 7924 c-92 -29 -167 -94 -210 -179 -128 -257 60 -545 345 -530
130 8 240 82 306 207 25 48 28 63 28 153 0 90 -3 106 -28 158 -36 72 -102 138
-173 173 -69 34 -193 42 -268 18z"/>
</g>
</svg>
